<?xml version="1.0" encoding="utf-8"?>
<!-- Generator: Adobe Illustrator 21.0.2, SVG Export Plug-In . SVG Version: 6.00 Build 0)  -->
<svg version="1.1" id="Layer_1" xmlns="http://www.w3.org/2000/svg" xmlns:xlink="http://www.w3.org/1999/xlink" x="0px" y="0px"
	 viewBox="0 0 201.5 213.7" style="enable-background:new 0 0 201.5 213.7;" xml:space="preserve">
<style type="text/css">
	.st0{fill:#50B548;}
	.st1{fill:#B3D0E6;}
	.st2{fill:#A6CE3A;}
	.st3{fill:#D4793B;}
	.st4{fill:#6C2614;}
	.st5{display:none;}
	.st6{display:inline;fill:#EB8B90;}
	.st7{display:inline;fill:#DC5E93;}
	.st8{display:inline;fill:#F4A0AC;}
	.st9{display:inline;fill:#D08DB1;}
	.st10{display:inline;fill:#D8A9CD;}
	.st11{display:inline;fill:#DCB389;}
	.st12{display:inline;fill:#C55073;}
	.st13{display:inline;fill:#E2B42C;}
	.st14{display:inline;fill:#E3EBD7;}
	.st15{display:inline;fill:#FCFBFA;}
	.st16{display:inline;fill:#F08F5D;}
	.st17{display:inline;fill:#79B651;}
	.st18{display:inline;fill:#7CAB46;}
	.st19{display:inline;fill:#47B252;}
	.st20{display:inline;fill:#91C44A;}
	.st21{display:inline;fill:#1D974E;}
	.st22{display:inline;fill:#A8C2C4;}
	.st23{display:inline;fill:#7FB9BC;}
</style>
<g id="Tree">
	<g>
		<g id="XMLID_3_">
			<polygon class="st0" points="100.3,175.6 100.3,87.8 188.2,87.8 182.4,97 186,107.3 178.3,115 179.6,125.8 170.3,131.7 
				169.1,142.5 158.8,146.1 155.2,156.4 144.4,157.7 138.6,166.9 127.7,165.7 120,173.4 109.7,169.9 100.4,175.7 			"/>
		</g>
		<g id="XMLID_2_">
			<polygon class="st1" points="100.3,0 100.3,87.8 188.2,87.8 182.4,78.6 186,68.3 178.3,60.6 179.6,49.8 170.3,43.9 169.1,33.1 
				158.8,29.5 155.2,19.2 144.4,17.9 138.6,8.7 127.7,9.9 120,2.2 109.7,5.7 100.4,-0.1 			"/>
		</g>
		<g id="XMLID_4_">
			<polygon class="st2" points="100.5,175.5 100.5,87.7 12.7,87.7 18.4,96.9 14.8,107.2 22.5,114.9 21.3,125.8 30.5,131.6 
				31.7,142.4 42,146.1 45.6,156.4 56.5,157.6 62.3,166.9 73.1,165.7 80.9,173.4 91.2,169.8 100.4,175.6 			"/>
		</g>
		<g id="XMLID_1_">
			<polygon class="st3" points="100.5,0.1 100.5,87.9 12.7,87.9 18.4,78.7 14.8,68.4 22.5,60.7 21.3,49.8 30.5,44 31.7,33.2 
				42,29.5 45.6,19.2 56.5,18 62.3,8.7 73.1,9.9 80.9,2.2 91.2,5.8 100.4,0 			"/>
		</g>
	</g>
	<path class="st4" d="M89.9,191l6.8-90l-12.8,21.5L93.2,97l-15,10.5l-1.5,41.3l-1.3-39.3l-4.6,3.5l-6.8,24.2l3-21.5l-20,13L80.3,102
		l-40.9,1.2l47-6.3l10.3-9.1l-8.5-6.4L68,94.5l16.6-14.8l-29-2l-11,4.5l8-5.8l-11.8-2.8L81.3,76L57.9,58.2l-21.3,3.5l18-5.3
		l-9.3-9.3l20,13l-8.7-28.8l5.8,10.8l6-13.3l-4.5,16.3l4.5,16.5l7.8,5.8l5-17.3l-9-12L82.9,47l7.8-19.5l-1.3,10.8l7.3-6.3l-8.8,11.8
		L80.3,70l17.4,12l-1-39.8l2.5,14l8.8-12.5l-7.4,17.5l2.4,20.5l19.5-13.3l-5-27.8l-10.6-10.6l10.4,7.9l-1-8.5l4.5,14.3l8-5l-7,8
		l4.8,18.8l4.8-3.4l6.5-16.7L131.8,29l7.2,13.5l5.5-10.8l-8.3,28l18-13.2l-7,8.7l15.2,5.3l-19.2-2.2l-20.7,16.3l38.7-2.2l-12.7,3
		l8,6.7l-11-5.7l-30,3.3l-10.3,8l6.2,4.7l26.3-10.7l-22,13.6l45.5,7.1l-40.8-2.7l33.7,28.7l-28.8-19.3l-8,37.8l3.8-40.8l-17-12
		l7.7,96.8c0,0,68.3,6.3,89.8,22.8c0,0-34.9-11.5-101-11.5S0,213.7,0,213.7S48.7,191,89.9,191z"/>
</g>
<g class="st5">
	<path class="st6" d="M118.8,111.1c1-0.2,1.9-0.3,2.6-0.4c0.7-1.2,1.3-2.2,2.1-3.7c1.1,0.9,1.9,1.6,2.7,2.3c0.3-0.4,0.7-1,1.3-1.8
		c1.1,0.7,1.9,1.2,2.8,1.7c-0.3,0.9-0.4,1.5-0.6,2c0.9,0.4,1.8,0.7,2.7,1.1c0,0.8,0.1,1.4,0.1,2.1c-0.8,0.5-1.4,0.9-2.2,1.3
		c0.9,1.1,1.3,2.3-0.1,3.8c-0.8-0.2-1.8-0.4-2.8-0.6c-0.3,0.6-0.7,1.4-1,2c-2.4,0.2-2.6-0.1-3.3-2.6c-0.5,0.2-1.1,0.5-1.5,0.7
		c-1.3-0.2-1.9-1-1.9-2.2c0.1-0.8,0.2-1.5,0.4-2.3c-0.1,0-0.2,0-0.3,0.1C119.4,113.4,119.1,112.3,118.8,111.1z M126.8,111.9
		c-1.2-0.1-2.5-0.3-3.2,1c-0.3,0.7-0.3,1.8,0.1,2.4c0.7,1.3,2,1.1,3.2,0.9C128.6,114.2,128.6,113.6,126.8,111.9z"/>
	<path class="st7" d="M143.6,119.1c0.3-1,0.5-2,0.8-3.1c-0.4-0.4-1.1-1.2-2.1-2.2c1.3-0.9,2.3-1.5,3.5-2.3c0-0.2,0.1-0.9,0.2-1.6
		c0.6-0.3,1.1-0.6,1.8-1c0.7,0.5,1.4,1,2.1,1.5c0.7-0.4,1.5-0.8,2.4-1.2c0.7,0.5,1.2,1,1.8,1.5c-0.2,0.7-0.4,1.4-0.5,1.9
		c0.9,0.5,1.9,1,2.8,1.4c-0.1,0.7-0.2,1.3-0.3,2c-0.6,0.3-1.2,0.7-1.9,1.1c0.4,0.5,0.7,0.8,1,1.2c0,0.5,0.1,0.9,0.1,1.4
		c-0.5,0.4-1,0.8-1.6,1.3c-0.8-0.3-1.6-0.6-2.1-0.8c-0.9,0.9-1.6,1.6-2.3,2.4c-0.2,0-0.3,0-0.5,0c-0.7-0.8-1.4-1.6-2.2-2.6
		c-0.2,0.1-0.6,0.2-1.1,0.4C144.8,119.9,144.2,119.5,143.6,119.1z M150.1,112.8c-0.9,0.3-1.5,0.5-2.3,0.8c-0.3,0.8-0.5,1.6-0.8,2.4
		c0.7,0.7,1.4,1.3,1.9,1.7c2.3-0.5,2.3-0.5,3.2-2.9C151.5,114.2,150.8,113.5,150.1,112.8z"/>
	<path class="st7" d="M147.1,163.3c-0.2-0.2-0.3-0.5-0.7-0.9c-0.3,0.8-0.6,1.4-0.9,2c-2.3,1.2-3.1,0.7-3.4-2.2
		c-0.6,0.2-1.2,0.5-2,0.8c-0.4-0.4-1.3-0.8-1.3-1.2c0-1.1,0.3-2.1,0.6-3.3c-0.4-0.3-1-0.9-1.8-1.5c0.5-0.8,0.8-1.5,1.1-2.1
		c0.9-0.1,1.6-0.1,2.3-0.2c0-0.6-0.1-1.3-0.1-1.8c1.7-1.7,2.4-1.7,4,0.2c0.3-0.3,0.6-0.6,0.9-0.8c0.4-0.2,0.8-0.4,1.3-0.6
		c0.6,0.3,1.1,0.6,1.8,1c-0.1,0.8-0.1,1.6-0.2,2.5c1.2,0.3,2.6,0.6,2.8,2.7c-0.6,0.5-1.4,1.1-2.3,1.7c0.2,0.4,0.6,1,1,1.7
		c-0.4,0.6-0.8,1.3-1.1,1.9C148.4,163.3,147.7,163.3,147.1,163.3z M143.6,155.8c-1.7,2.1-1.7,3.6,0,4.3c0.6,0,1.3,0,2,0
		c0.5-0.6,1-1.2,1.7-1.9c-0.6-0.9-1.1-1.7-1.6-2.5C144.9,155.8,144.3,155.8,143.6,155.8z"/>
	<path class="st8" d="M148.4,144.8c-0.5-0.2-1-0.3-1.6-0.5c-0.3,0.6-0.6,1.3-0.9,1.9c-2.5,0.6-2.9,0.3-3.3-2.3
		c-0.9,0.2-1.9,0.3-2.9,0.5c-0.3-0.9-0.5-1.5-0.7-2.1c0.4-0.7,0.7-1.3,1.1-1.9c-0.2,0.1-0.3,0.3-0.5,0.4c-0.6-0.5-1.3-1-1.9-1.6
		c0.2-0.3,0.4-0.5,0.6-0.8c0.3-0.6,0.5-1.2,0.8-1.8c0.8-0.2,1.5-0.3,2.2-0.5c0.1-0.6,0.2-1.3,0.2-1.9c1.8-1.5,2.2-1.5,3.8,0.2
		c2-1.1,2.2-1.1,4,0.1c0,0.4,0,0.8,0,1.2c0,0.4-0.2,0.7-0.4,1.2c0.8,0.2,1.4,0.3,2.2,0.5c0.3,0.6,0.6,1.1,1.1,2.1
		c-0.9,0.6-1.7,1.1-2.5,1.7c0.3,0.6,0.7,1.3,1.1,2.1c-0.5,0.6-1,1.2-1.4,1.9C149,145,148.7,144.9,148.4,144.8z M147.5,139.8
		c-0.9-1.8-1.9-2.5-3.2-2.1c-1.1,0.3-1.7,1.4-1.6,2.6c0.1,1,1.3,2,2.4,2c0.5-0.2,1.1-0.4,1.7-0.7C147.1,141,147.3,140.4,147.5,139.8
		z"/>
	<path class="st8" d="M146.2,93.3c0.4,0.5,0.8,1.1,1.2,1.6c2.1-1.7,2.7-1.6,4.2,0.3c-0.2,0.6-0.4,1.2-0.6,2c0.7,0.1,1.5,0.1,2.6,0.3
		c0.1,1,0.1,2,0.2,3.1c-1,0.2-1.6,0.3-2.2,0.4c0.4,1.1,0.7,2.2,1.1,3.4c-0.9,0.4-1.6,0.7-2.2,1c-0.7-0.5-1.2-0.8-1.9-1.3
		c-0.2,0.7-0.3,1.4-0.5,2c-1.2,0.8-2.1,0.6-3.2-0.3c-0.1-0.6-0.2-1.4-0.2-1.8c-1,0.1-2,0.2-3,0.3c-0.3-0.6-0.5-1.1-0.8-1.7
		c0.3-0.7,0.7-1.4,1-2.2c-0.4-0.3-0.9-0.7-1.4-1c-0.2-2.4,0-2.6,2.9-3.2c0-0.5,0-1,0-1.5c0.4-0.4,0.8-0.8,1.2-1.3
		C145.2,93.3,145.7,93.3,146.2,93.3z M146.7,102.6c2.5-0.6,2.8-1,2.4-3.8c-1.9-1.4-2-1.4-4.1,0c0,0.8,0,1.6,0,2.6
		C145.6,101.8,146.2,102.2,146.7,102.6z"/>
	<path class="st6" d="M122.4,135c-0.5,0.8-1,1.7-1.5,2.5c-0.1,0-0.3-0.1-0.4-0.1c0.2,0.7,0.3,1.4,0.5,2.1c-0.2,1.5-1.3,1.8-2.6,1.7
		c-0.5-0.4-1-0.8-1.6-1.3c-0.1,0.9-0.2,1.6-0.3,2.3c-0.4,0.3-0.8,0.5-1.1,0.8c-0.1-0.2-0.2-0.5-0.2-0.7c-0.4,0.1-0.7,0.2-1,0.2
		c-0.5-0.7-0.9-1.5-1.5-2.3c-0.2,0.1-0.7,0.3-1.4,0.6c-0.5-0.3-1.1-0.6-1.6-1c0.1-1,0.2-2,0.3-3.2c-0.1,0-0.4-0.2-0.8-0.4
		c-0.1-0.6-0.2-1.3-0.3-1.8c0.4-1.9,1.7-2,3.1-1.7c-0.1-0.8-0.1-1.4-0.2-2.1c0.5-0.4,1-0.7,1.5-1.1c0.9,0.4,1.7,0.7,2.9,1.2
		c0.2-0.1,0.8-0.4,1.3-0.7c0.8,0.2,1.5,0.4,2.3,0.6c-0.2,0.9-0.3,1.8-0.5,2.6c-0.1,0.1-0.1,0.1-0.1,0.1c0,0,0-0.1,0.1-0.1
		C120.6,133.2,121.8,133.6,122.4,135z M116.8,138c1.5-2.2,1.5-2.3-0.1-4.3c-0.8,0-1.8,0-2.6,0c-1.5,2.1-1.5,2.4,0.1,4.3
		C115,138,115.9,138,116.8,138z"/>
	<path class="st8" d="M129.8,130.9c0.1-1.2,0.1-2.5,1.8-3.2c-0.7-0.3-1.2-0.5-1.7-0.7c-1-2.5-0.5-3.3,2.1-3.5
		c0.1,0.1,0.2,0.1,0.3,0.2c0,0,0.1-0.1,0.1-0.1c-0.1-0.1-0.2-0.1-0.3-0.2c0.2-2.3,0.5-2.7,2.8-3c0.4,0.4,0.9,1,1.2,1.3
		c1.2-0.3,2.3-0.6,3.3-0.9c0.4,0.6,0.7,1.2,1.1,1.8c-0.2,0.5-0.4,0.9-0.6,1.3c0.9,0.5,1.9,0.9,2.6,1.6c0.3,0.4,0.1,1.3,0.1,2.1
		c-0.8,0.2-1.5,0.3-2.1,0.4c0.4,0.9,0.7,1.9,1.2,2.9c-0.6,0.5-1,1-1.6,1.5c-0.9-0.4-1.6-0.8-2.2-1.1c-0.6,0.9-1.2,1.9-1.7,2.6
		c-2.1-0.3-2.7-1.4-2.6-3c-0.7,0.3-1.3,0.6-1.9,0.8C131,131.4,130.4,131.2,129.8,130.9z M133.2,126.4c0.5,0.9,1.1,1.9,1.8,3.2
		c1.3-0.5,2.3-0.8,3.2-1.2c0-0.8,0.1-1.1,0.1-1.5c0-0.4,0-0.9,0-1.2C136.6,123.8,135.2,123.9,133.2,126.4z"/>
	<path class="st9" d="M119.7,130.6c-0.8-0.2-1.5-0.4-2.3-0.6c0.4-0.9,0.9-1.8,1.1-2.3c-0.5-0.5-0.9-0.9-1.2-1.2
		c0.1-1,0.2-1.6,0.3-2.6c-0.6,0.5-1,0.7-1.3,1c-0.9-0.5-1.7-0.9-2.6-1.3c0-1,0-2.1,0-3.1c0.5-0.4,1-0.7,1.6-1.2c0.6,0,1.5,0,2.4,0
		c0.5,0.7,0.9,1.5,1.4,2.1c0.4,0.9-1.5,2,0.4,2.5c0.1,0.1,0.2,0.1,0.4,0.3c-0.1-0.2-0.2-0.3-0.3-0.4c-0.1-1,0.2-1.9,1.2-2.1
		c0.7-0.1,1.5,0.4,2.5,0.8c0.6-0.5,1.5-0.9,2.8,0c0,0.6,0,1.3,0,1.8c0.9,0.5,1.7,1,2.8,1.8c-1,0.9-1.6,1.5-2.3,2.2
		c0.1,0.2,0.4,0.6,0.6,1.1c-0.1,1-0.2,1.9-1.6,1.7c-0.5-0.1-1-0.2-1.4-0.2c-0.3,0.5-0.6,1-1,1.6c-0.7-0.1-1.4-0.2-2-0.3
		c-0.2-0.8-0.4-1.4-0.6-2C120.3,130.3,120,130.4,119.7,130.6z M121.1,127.7c1.6,1.4,1.7,1.4,3.4,0c0-0.6,0-1.2,0-2
		c-0.6-0.3-1.2-0.7-1.8-1c-0.6,0.4-1.1,0.7-1.6,1.1C121.1,126.5,121.1,127.1,121.1,127.7z M117.1,120.8c-0.3-0.1-0.5-0.1-0.8-0.2
		c-0.4,0.4-0.8,0.9-1.2,1.3c0.7,0.9,1.4,1.5,2.1,0.6C117.4,122.2,117.1,121.4,117.1,120.8z"/>
	<path class="st10" d="M128.7,162.3c-1.7,0.3-2.2-0.6-2.6-1.9c-1.3,0.3-2.5,0.3-3-1.5c0.3-0.4,0.6-1,1-1.5c-0.5-0.6-1-1.2-1.9-2.1
		c1-0.7,1.8-1.2,2.9-2c0-0.2,0.2-0.8,0.5-1.8c1,0.2,1.9,0.4,3.2,0.7c0.4-0.2,1.3-1.2,2.5,0c0.1,0.5,0.2,1.2,0.3,2.1
		c0.5,0.3,1.1,0.5,1.6,0.8c0.8,0.9,0.5,1.6-1.2,2.9c0.2,0.6,0.5,1.1,0.7,1.7c-0.8,1.5-1.9,1.7-3.2,0.6
		C129.4,161.1,129.1,161.7,128.7,162.3z"/>
	<path class="st10" d="M162.7,120c0.6-0.1,1.3-0.1,2-0.2c0.1-0.7,0.3-1.3,0.4-2.3c1.1,0.3,2,0.6,2.8,0.8c0.9-0.2,1.8-0.4,2.7-0.6
		c0.2,0.6,0.3,1.2,0.5,1.8c-0.1,0.4-0.1,0.7-0.2,1.1c0.5,0.1,1.1,0.2,1.7,0.2c0.2,0.5,0.5,1,0.9,1.9c-0.5,0.4-1.1,0.9-1.8,1.5
		c0.1,0.3,0.2,0.9,0.3,1.4c-0.5,0.5-1,1-1.5,1.4c-0.5-0.3-1-0.5-1.7-0.8c0,0.4-0.1,0.7-0.1,1.1c-0.5,1.3-1.7,0.8-2.6,1
		c-0.2-0.6-0.4-1.2-0.6-2c-1.1,0.4-2.2,0.4-3-0.6c-0.1-0.5-0.3-1-0.4-1.5c0.8-0.1,1.4-0.2,2-0.2c0-0.2,0-0.3,0.1-0.5
		c-0.6-0.4-1.2-0.8-1.8-1.2c0.4-0.5,0.8-1,1.2-1.5C163.2,120.4,162.9,120.2,162.7,120z"/>
	<path class="st6" d="M122,141.6c-0.4-2.1-0.3-2.3,1.3-2.7c0.8-1.1,1.4-1.9,2.1-2.7c0.7,0.4,1.4,0.7,1.9,1c0.8-0.2,1.6-0.5,2.7-0.8
		c0.3,1,0.5,1.8,0.8,2.8c0.8,0.3,2,0.8,1.6,2.6c-0.4,0.2-0.9,0.5-1.5,0.8c0.2,0.6,0.5,1.3,0.8,2.2c-0.7,0.4-1.3,0.8-1.9,1.2
		c-0.6-0.3-1-0.6-1.3-0.7c-0.6,0.7-1.1,1.4-1.9,2.4c-0.8-1-1.4-1.7-2.1-2.5c-0.9,0.2-2.1,0.6-2.4-1.4c0.2-0.4,0.5-1,0.9-1.7
		C122.6,142,122.3,141.8,122,141.6z M126.1,139.9c-1,0.7-1.6,1.6-0.7,2.7c0.7,0.9,1.7,1.1,2.5,0.5c0.5-0.4,1.1-1.4,0.9-2
		C128.6,139.8,127.4,139.6,126.1,139.9z"/>
	<path class="st10" d="M121,100.8c0-1.6,1-2.1,2.5-2.3c0.2-1,0.1-2.3,1.8-2.4c0.4,0.3,0.9,0.7,1.6,1.1c0.8-0.5,1.8-1.4,2.9-0.2
		c0.1,0.5,0.2,1.2,0.2,1.8c0.7,0.4,1.3,0.8,1.8,1.1c0.7,1.4-0.2,2-1.1,2.7c0.1,0.7,0.3,1.3,0.4,2c-0.8,1.4-1.8,1.5-3,0.6
		c-0.6,0.7-1.2,1.4-2,2.4c-0.8-1.1-1.4-1.8-1.8-2.4c-0.9-0.2-1.7-0.3-2.5-0.4c0-0.4,0-0.8,0.1-1.1c0.2-0.6,0.4-1.2,0.7-1.8
		c-0.3-0.2-0.7-0.3-1-0.5C121.3,101.2,121.2,101,121,100.8z M127.7,99.7c-1.6-0.4-2.7-0.2-3.1,1.2c-0.3,1,0.2,1.7,1.1,2.1
		c1.1,0.5,2,0,2.8-1.7C128.3,100.8,128,100.2,127.7,99.7z"/>
	<path class="st10" d="M156,115.9c0.1-0.7,0.2-1.3,0.3-2c0.2-0.2,0.4-0.4,0.8-0.7c-0.5-0.4-1-0.8-1.4-1.1c-0.5-1.2,0.2-2,2.3-2.6
		c0.1-1,0.1-2.3,1.8-2.3c0.4,0.3,0.9,0.7,1.5,1.1c0.9-0.4,1.8-1.4,3-0.1c0.1,0.6,0.1,1.3,0.2,2.1c0.6,0.2,1.2,0.4,1.7,0.6
		c0.9,1.6-0.1,2.2-1.2,2.6c0.1,1,0.2,1.9,0.3,3.2c-1.2-0.1-2-0.2-3-0.3c-0.3,0.6-0.7,1.4-1.1,2.2c-0.3,0-0.5,0-0.8,0
		c-0.6-0.8-1.1-1.6-1.6-2.3C157.9,116.1,156.9,116,156,115.9z M161.1,114.7c0.7-0.6,1.4-1.2,2.2-1.8c-0.4-0.8-0.7-1.5-1.1-2.1
		c-0.7,0-1.4,0-2,0C158.6,112.4,158.7,113.3,161.1,114.7z"/>
	<path class="st6" d="M157.9,96.3c0.5-2.4,1.3-2.7,3.4-1.2c0.6-0.3,1.1-0.6,1.8-0.9c0.5,0.3,0.9,0.5,1.4,0.8
		c-0.1,0.7-0.1,1.3-0.2,1.8c0.8,0.6,1.7,1.1,2.9,1.9c-1.1,0.9-1.8,1.4-2.7,2c0.3,0.4,0.6,0.9,1.2,1.5c-0.5,0.5-1,1-1.5,1.6
		c-0.7-0.4-1.1-0.7-1.7-1.1c-0.2,0.6-0.4,1.1-0.6,1.7c-2.2,0.5-2.2,0.5-2.8-1.6c-0.7,0.1-1.3,0.2-2.1,0.2c-0.3-0.5-0.6-1-0.9-1.6
		c0.4-0.6,0.8-1.1,1.1-1.7c-0.5-0.4-1-0.8-1.5-1.2c0.1-1.6,0.8-2.2,2.1-2.2c0.1,0.1,0.2,0.1,0.3,0.2C158,96.5,157.9,96.4,157.9,96.3
		z M163.1,99.2c-0.5-1.4-1.3-2.2-2.6-1.8c-0.6,0.2-1.3,1.3-1.3,1.9c0,0.6,0.8,1.7,1.4,1.8C161.9,101.5,162.8,100.7,163.1,99.2z"/>
	<path class="st11" d="M154.2,146c-0.8-1.1-0.5-2.2,0-2.9c-0.7-0.4-1.2-0.8-1.8-1.2c0.2-0.2,0.4-0.4,0.6-0.7c0.3-1.3,1-1.9,2.4-1.6
		c0.1-0.7,0.3-1.4,0.4-2.1c1.3-0.7,2.3-0.5,2.8,0.8c0.7-0.4,1.3-0.8,1.9-1.1c1.5,0.5,2.1,1.3,1.2,2.9c1.3,0.3,2.6,0.4,2.2,2.3
		c-0.4,0.4-0.9,0.8-1.2,1.1c0.1,1,0.2,1.9,0.3,3.2c-1.4-0.2-2.3-0.4-3.3-0.6c-0.1,0.4-0.3,1-0.6,1.7c-0.7,0-1.3,0.1-1.9,0.1
		c-0.3-0.7-0.6-1.3-0.9-2c-0.5,0.1-1,0.2-1.6,0.3C154.6,146.1,154.4,146,154.2,146z M156.4,142.6c0.7,1.5,1.6,2,2.9,1.5
		c1-0.4,1.4-1.4,1-2.4c-0.5-1.4-1.6-1.6-3.1-1.1C157,141.2,156.7,141.9,156.4,142.6z"/>
	<path class="st9" d="M171.1,119.5c-0.2-0.6-0.3-1.2-0.5-1.8c0.3-0.4,0.5-0.9,0.8-1.3c-0.9-0.8-2-1.5-0.7-3c0.5-0.1,1.1-0.2,1.3-0.2
		c0.6-1,0.8-2,1.5-2.4c0.9-0.6,1.7,0,2.1,0.9c1.8-1,1.8-1,3.4,0c0,0.3,0,0.6,0,1c0,0.3-0.1,0.5-0.1,0.6c0.9,0.6,1.7,1.1,2.9,1.8
		c-1,0.9-1.7,1.5-2.4,2.1c0.9,1.7,0.9,1.7-0.7,3.1c-0.5-0.2-1-0.4-1.6-0.7c-0.3,0.4-0.6,0.9-0.9,1.5c-0.6,0-1.2,0-1.9,0
		c-0.3-0.7-0.5-1.3-0.7-1.8C172.7,119.4,171.9,119.5,171.1,119.5z M177.7,116.9c0-0.6-0.1-1.2-0.1-1.9c-0.6-0.3-1.1-0.7-1.9-1.1
		c-0.7,0.8-1.4,1.5-2,2.2C175.2,118.5,175.8,118.6,177.7,116.9z"/>
	<path class="st11" d="M148.8,122.5c0.2,0,0.3,0,0.5,0c0.6,0.5,1.2,1,1.8,1.5c0.8-0.8,1.7-1.6,3-0.4c0,0.6,0,1.3,0,2
		c1.3,0.2,2.2,0.9,2.3,2.3c0,0,0,0,0,0c-0.8,0.4-1.5,0.8-2.4,1.3c0.3,0.3,0.7,0.6,1,0.9c0,0.4,0,0.8,0,1.2c-0.8,1.5-1.8,1.1-2.9,0.4
		c-0.4,0.7-0.9,1.3-1.3,1.9c-1.7,0.1-2.2-0.8-2.1-2.4c-0.7,0.2-1.3,0.4-1.9,0.6c-0.4-0.4-0.8-0.8-1.2-1.3c0.2-0.7,0.4-1.3,0.6-1.9
		c-0.3-0.8-0.7-1.6-1.1-2.6c0.9-0.4,1.5-0.7,2-0.9C147.7,124.2,148.3,123.3,148.8,122.5z M149.2,126c-0.3,2.2,0.3,3.1,1.6,3.1
		c1.4,0.1,2-0.9,2-3c-0.4-0.3-1-0.7-1.5-1.1C150.5,125.4,149.8,125.7,149.2,126z"/>
	<path class="st12" d="M133.2,150.7c-0.6,0.2-1.2,0.3-1.8,0.5c-0.1-0.2-0.2-0.3-0.3-0.5c0.5-0.6,1.1-1.1,1.6-1.7
		c-0.6-0.3-1.3-0.6-2-0.9c0-0.2,0-0.4,0.1-0.6c0.8-0.1,1.5-0.1,2.3-0.2c-0.2-0.7-0.4-1.5-0.6-2.3c0.3-0.2,0.5-0.4,0.8-0.6
		c0.4,0.7,0.9,1.3,1.3,1.9c0.4-0.7,0.7-1.4,1.1-2.1c0.2,0,0.4,0.1,0.5,0.1c0.1,0.7,0.3,1.3,0.4,2.1c0.6-0.1,1.2-0.2,1.9-0.3
		c0.1,0.1,0.2,0.2,0.3,0.4c-0.5,0.6-1,1.2-1.5,1.8c0.6,0.3,1.3,0.7,2,1c0,0.2,0,0.4,0,0.5c-0.7,0.1-1.4,0.3-2.2,0.4
		c0.1,0.7,0.3,1.3,0.4,2c-0.1,0.1-0.3,0.2-0.4,0.3c-0.6-0.5-1.2-1.1-1.7-1.6c-0.3,0.6-0.7,1.4-1,2.1c-0.2,0-0.4-0.1-0.6-0.1
		c-0.1-0.6-0.1-1.2-0.2-1.8c0.1-0.2,0.1-0.3,0.2-0.6C133.5,150.6,133.3,150.6,133.2,150.7z"/>
	<path class="st12" d="M138.6,93.4c-0.6,0.5-1.3,1-1.8,1.4c0.7,0.3,1.4,0.6,2.1,1c0,0.2-0.1,0.4-0.1,0.6c-0.8,0.1-1.6,0.1-2.3,0.2
		c0.2,0.8,0.4,1.5,0.6,2.3c-0.3,0.2-0.5,0.4-0.8,0.6c-0.4-0.7-0.8-1.3-1.2-2.1c-0.4,0.7-0.8,1.4-1.1,2.2c-0.2,0-0.4-0.1-0.6-0.1
		c0-0.8-0.1-1.7-0.1-2.4c-0.7,0.2-1.5,0.5-2.2,0.8c-0.1-0.2-0.2-0.3-0.3-0.5c0.5-0.5,1-1.1,1.5-1.7c-0.6-0.4-1.2-0.8-2.3-1.4
		c1.1-0.3,1.6-0.5,2.3-0.7c0-0.6,0-1.3,0-2.6c0.9,1,1.5,1.5,2,2.1c0.3-0.7,0.6-1.4,0.9-2.2c0.2,0,0.4,0,0.6,0.1
		c0.1,0.7,0.2,1.5,0.3,2.2c0.7-0.2,1.4-0.4,2.2-0.6C138.3,92.9,138.4,93.2,138.6,93.4z"/>
	<path class="st12" d="M171.1,105.9c0.7,0.3,1.5,0.6,2.3,0.9c0,0.2-0.1,0.4-0.1,0.6c-0.8,0.1-1.6,0.1-2.3,0.2
		c0.2,0.7,0.4,1.5,0.7,2.2c-0.3,0.2-0.6,0.5-0.9,0.7c-0.4-0.7-0.7-1.4-1.1-2.2c-0.5,0.9-0.9,1.6-1.3,2.3c-0.2,0-0.3,0-0.5-0.1
		c-0.1-0.7-0.3-1.3-0.4-2.1c-0.6,0.1-1.2,0.3-1.9,0.4c-0.1-0.1-0.2-0.2-0.3-0.4c0.4-0.6,0.8-1.1,1.3-1.7c-0.5-0.4-1.1-0.8-1.7-1.2
		c0.1-0.1,0.1-0.3,0.2-0.4c0.7-0.1,1.3-0.2,2.1-0.4c-0.2-0.6-0.4-1.2-0.6-1.9c1.6-0.6,1.6,1,2.3,1.4c0.3-0.7,0.6-1.5,0.9-2.2
		c0.2,0,0.4,0.1,0.6,0.1c0.1,0.7,0.2,1.4,0.3,2.2c0.6-0.1,1.4-0.3,2.2-0.5c0.1,0.2,0.2,0.4,0.3,0.5
		C172.3,104.8,171.6,105.4,171.1,105.9z"/>
	<path class="st12" d="M160.4,118.6c0.3,0,0.5,0,0.8,0c0.1,0.3,0.2,0.6,0.3,1.1c0.4,0.1,0.7,0.2,1.1,0.3c0.3,0.2,0.6,0.4,1,0.7
		c-0.4,0.5-0.8,1-1.2,1.5c0.6,0.4,1.2,0.8,1.8,1.2c0,0.2,0,0.3-0.1,0.5c-0.6,0.1-1.2,0.1-2,0.2c0.1,0.5,0.3,1,0.4,1.5
		c-0.1,0.3-0.2,0.5-0.3,1c-0.7-0.4-1.3-0.8-2-1.2c-0.3,0.5-0.6,1-0.9,1.5c-0.1,0-0.2,0-0.3,0c-0.3-0.7-0.5-1.4-0.8-2.2
		c-0.2,0.1-0.5,0.3-0.9,0.3c-0.4,0.1-0.8,0-1.7,0c0.8-0.9,1.4-1.5,1.9-2c-0.7-0.4-1.4-0.7-2-1.1c0-0.1,0.1-0.3,0.1-0.4
		c0.7-0.2,1.4-0.4,2.2-0.6c-0.2-0.4-0.4-0.7-0.6-1.1c0.3-0.3,0.6-0.6,1-0.9c0,0,0,0,0,0c0.4,0.5,0.9,1,1.3,1.5
		c0.1-0.1,0.3-0.1,0.4-0.2c0-0.4,0-0.8,0-1.2C160.1,118.9,160.3,118.7,160.4,118.6z"/>
	<path class="st12" d="M170.4,139.3c-1,0.4-1,0.4-2.2-0.6c-0.4,0.6-0.8,1.1-1.2,1.6c-0.4-0.7-0.8-1.4-1.2-2.2
		c-0.4,0.1-1,0.2-1.6,0.4c-0.1-0.1-0.2-0.3-0.4-0.4c0.5-0.6,1-1.3,1.5-1.9c-0.6-0.3-1.3-0.6-2-0.9c0-0.2,0.1-0.4,0.1-0.5
		c0.7-0.1,1.3-0.2,2-0.3c-0.1-0.8-0.1-1.6-0.2-2.4c0.7,0.5,1.3,1,1.9,1.5c0.4-0.7,0.8-1.3,1.4-2.2c0.3,0.8,0.5,1.2,0.6,1.6
		c-0.1,0.2-0.1,0.5-0.2,0.7c0,0.2,0,0.3,0,0.5c0.1-0.1,0.2-0.1,0.4-0.2c0.6-0.2,1.2-0.4,1.7-0.6c0.1,0.1,0.3,0.3,0.4,0.4
		c-0.4,0.6-0.9,1.2-1.3,1.8c0.6,0.4,1.2,0.8,1.8,1.2c0,0.2-0.1,0.3-0.1,0.5c-0.7,0.1-1.5,0.1-2.3,0.2
		C169.9,137.9,170.1,138.6,170.4,139.3z"/>
	<path class="st10" d="M141,102.6c0.3,0.6,0.5,1.1,0.8,1.7c-0.6,0.3-1.3,0.7-2.2,1.2c1,0.4,2.4,0.1,2.1,1.8c-0.6,0-1.2-0.1-1.9-0.1
		c0.1,0.8,0.2,1.5,0.2,2.3c-0.2,0.1-0.3,0.2-0.5,0.2c-0.5-0.6-1-1.3-1.5-1.8c-0.3,0.7-0.6,1.5-0.9,2.2c-0.2,0-0.3-0.1-0.5-0.1
		c-0.1-0.6-0.2-1.2-0.4-1.9c-0.8,0.1-1.5,0.2-2.2,0.2c-0.1-0.1-0.2-0.3-0.2-0.4c0.5-0.5,1-1.1,1.5-1.6c-0.6-0.4-1.3-0.7-2-1.1
		c0-0.2,0-0.4,0.1-0.6c0.7-0.1,1.4-0.2,2.2-0.2c0.1,0.1,0.1,0.1,0.2,0.2c0,0,0,0,0.1-0.1c-0.1-0.1-0.2-0.1-0.3-0.2
		c-0.1-0.6-0.3-1.2-0.6-2.5c1.1,0.6,1.7,0.9,2.3,1.3c0.3-0.5,0.7-1,1.4-2c0.3,1.2,0.4,1.8,0.7,2.8C140,103.5,140.5,103.1,141,102.6z
		"/>
	<path class="st12" d="M114.1,142.5c0.3-0.1,0.7-0.1,1-0.2c0.1,0.3,0.2,0.5,0.2,0.7c0,0.5,0,1,0,1.7c0.7-0.3,1.2-0.6,1.7-0.9
		c0.2,0.3,0.4,0.6,0.6,1c-0.6,0.5-1.2,0.9-1.7,1.3c0.8,0.4,1.5,0.8,2.3,1.2c-0.1,0.1-0.1,0.3-0.2,0.4c-0.7,0-1.4,0.1-2.2,0.1
		c0.2,0.7,0.4,1.4,0.8,2.4c-0.6-0.2-0.9-0.2-1.2-0.4c-0.3-0.2-0.5-0.4-0.8-0.6c-0.4,0.6-0.7,1.2-1,1.7c-1.6-0.3-0.7-1.7-1-2.5
		c-0.7,0.2-1.3,0.5-2,0.7c-0.1-0.1-0.3-0.2-0.4-0.3c0.4-0.6,0.8-1.3,1.1-1.9c-0.6-0.4-1.2-0.8-1.8-1.2c0-0.1,0.1-0.3,0.1-0.4
		c0.7-0.1,1.5-0.2,2.2-0.3c-0.2-0.7-0.4-1.3-0.6-2c0.2-0.1,0.3-0.3,0.5-0.4c0.6,0.5,1.2,1.1,2,1.7
		C113.8,143.8,113.9,143.1,114.1,142.5z"/>
	<path class="st10" d="M154.2,146c0.2,0,0.3,0.1,0.5,0.1c-0.4,0.7-0.9,1.4-1.3,2.1c0.5,0.2,1.1,0.6,1.8,0.9c0,0.2,0,0.4,0,0.5
		c-0.6,0.1-1.2,0.2-1.8,0.4c-0.2-0.1-0.3-0.3-0.5-0.4c0,0.1-0.1,0.2-0.1,0.3c0.2,0,0.4,0.1,0.6,0.1c0,0.7-0.1,1.4-0.1,2.5
		c-0.8-0.8-1.3-1.2-1.8-1.7c-0.4,0.6-0.8,1.3-1.2,1.9c-0.2,0-0.4-0.1-0.6-0.1c-0.1-0.6-0.1-1.2-0.2-1.7c0.1-0.2,0.2-0.4,0.2-0.6
		c-0.1,0-0.1,0-0.2-0.1c0,0.2-0.1,0.4-0.1,0.6c-0.6,0-1.3,0-1.9,0c-0.1-0.1-0.2-0.3-0.2-0.4c0.6-0.5,1.1-1.1,1.7-1.6
		c-0.6-0.2-1.3-0.5-2.1-0.8c0-0.2,0-0.4,0.1-0.6c0.7-0.1,1.5-0.2,2.2-0.3c-0.2-0.8-0.4-1.6-0.6-2.5c0.3,0.1,0.7,0.2,1,0.4
		c0.3,0.4,0.7,0.7,1.1,1.1c0.3-0.7,0.6-1.3,1-1.9c1.4,0.5,0.9,1.5,0.6,2.4C152.9,146.4,153.6,146.2,154.2,146z"/>
	<path class="st8" d="M159.1,127c0.1-0.1,0.2-0.1,0.3,0c1,0.6,1,0.6,1.3,2.1c0.6-0.1,1.2-0.2,1.8-0.2c0.1,0.1,0.2,0.2,0.3,0.4
		c-0.4,0.5-0.8,1-1.2,1.6c0.6,0.4,1.2,0.9,2.2,1.6c-1.1,0.2-1.7,0.4-2.5,0.5c0.1,0.6,0.1,1.2,0.3,2.4c-1-0.8-1.7-1.3-2.3-1.8
		c-0.2,0.6-0.5,1.3-0.8,1.9c-0.2,0-0.4-0.1-0.5-0.1c-0.1-0.6-0.2-1.2-0.4-2c-0.6,0.2-1.2,0.3-1.8,0.5c-1-1.5,0.7-1.6,1.3-2.4
		c-0.7-0.1-1.3-0.2-2-0.3c0-0.4,0-0.8,0-1.2c0.7,0,1.4,0,2.2,0c-0.4-0.9-0.6-1.5-0.9-2.2l0,0c0.4,0.1,1,0,1.3,0.2
		c0.5,0.4,0.8,1.1,1.4,2C159.1,128.8,159.1,127.9,159.1,127z"/>
	<path class="st7" d="M118.8,111.1c0.3,1.1,0.7,2.3,1,3.4c0.1,0,0.2,0,0.3-0.1c-0.1,0.8-0.2,1.5-0.4,2.3c-0.6,0.1-1.2,0.1-1.9,0.2
		c-0.3,0.4-0.6,0.9-1.1,1.7c-0.8-1-1.2-1.5-1.6-2.1c-0.4,0-1-0.1-1.6-0.1c-0.1-1.3-0.2-2.4-0.4-3.7c0.4-0.2,0.9-0.4,1.4-0.7
		c0.1-0.3,0.2-0.8,0.3-1.6c0.7,0.2,1.3,0.3,1.7,0.4C117.4,111,118.1,111.1,118.8,111.1z M116.7,113.1c-1.1-0.5-1.7-0.2-1.9,0.8
		c-0.2,0.9,0.2,1.6,1.4,1.6C117.2,114.9,117.3,114.2,116.7,113.1z"/>
	<path class="st9" d="M118,150.4c0.5-1,1.1-2,1.6-2.9c1,0.1,2.1,0.2,3,0.3c0.4,0.7,0.8,1.3,1.3,2.2c-0.2,0.5-0.4,1.4-0.7,2.4
		c-0.6,0.2-1.4,0.6-2.3,0.9c-0.7-0.4-1.5-0.8-2-1.1C118.5,151.3,118.3,150.8,118,150.4z M122.5,150c-0.5-0.3-1.1-0.7-1.6-0.7
		c-0.4,0-0.7,0.7-1,1.2C121.1,151.7,121.8,151.5,122.5,150z"/>
	<path class="st9" d="M135.7,114.9c0.8-0.8,1.5-1.4,2.1-2c-0.1-0.1-0.2-0.2-0.3-0.3c0.8,0.1,1.6,0.2,2.6,0.3c0.4,0.6,0.8,1.3,1.2,2
		c-0.2,0.8-0.4,1.6-0.7,2.5c-0.7,0.3-1.6,0.7-2.4,1c-0.7-0.5-1.5-1-2.3-1.6C135.9,116.2,135.8,115.4,135.7,114.9z M137.2,114.9
		c0.3,0.5,0.5,1,0.9,1.7c0.6-0.5,1.1-0.8,1.7-1.2C139.1,114.3,138.6,113.7,137.2,114.9z"/>
	<path class="st9" d="M146.2,93.3c-0.5,0-1,0-1.5,0.1c-0.4,0.5-0.8,0.9-1.2,1.3c-0.8-0.3-0.8-1.9-2.2-1c-0.1-1.2-0.2-2.1-0.3-3
		c0.1,0.2,0.3,0.3,0.4,0.5c0.6-0.4,1.2-0.9,1.8-1.3c-0.3-0.3-0.5-0.5-0.8-0.8c0.8,0,1.7,0,2.7,0c0.4,0.6,1,1.4,1.3,1.9
		C146.4,91.9,146.3,92.6,146.2,93.3z M143.4,92.8c0.5-0.3,1-0.6,1.8-1c-0.5-0.7-1-1.2-1.4-1.7C142.6,90.9,142.4,91.7,143.4,92.8z"/>
	<path class="st9" d="M169.3,132.7c-0.1-0.4-0.3-0.8-0.6-1.6c-0.6,0.9-1,1.6-1.4,2.2c-0.6-0.4-1.2-1-1.9-1.5
		c-0.1-0.9-0.3-1.8-0.4-2.8c0.4-0.2,0.8-0.5,1.3-0.8c1-0.1,2.1,0.4,2.6-1c0.6,0.8,1.2,1.6,1.9,2.4
		C170.3,130.8,169.8,131.8,169.3,132.7z M168.8,129.1c-0.8,0.1-1.4,0.2-2,0.3c-0.1,0.2-0.2,0.4-0.2,0.6c0.5,0.4,0.9,0.8,1.4,1.1
		c0.2,0.1,0.5-0.1,0.9-0.2C168.8,130.3,168.8,129.9,168.8,129.1z"/>
	<path class="st13" d="M137.3,138.3c-0.9,1.1-1.9,1.6-2.9,0.6c-0.5-0.4-0.8-1.6-0.5-2.1c0.3-0.6,1.4-1.2,2-1.1
		C137.3,135.8,137.5,137,137.3,138.3z"/>
	<path class="st14" d="M173.3,128.8c-0.1,0.1-0.3,0.3-0.4,0.4C173,129.1,173.2,128.9,173.3,128.8z"/>
	<path class="st12" d="M126.8,111.9c1.7,1.7,1.7,2.2,0.1,4.3c-1.2,0.2-2.5,0.4-3.2-0.9c-0.3-0.6-0.4-1.7-0.1-2.4
		C124.3,111.6,125.7,111.8,126.8,111.9z"/>
	<path class="st12" d="M150.1,112.8c0.6,0.7,1.4,1.4,2,2.1c-0.9,2.3-0.9,2.3-3.2,2.9c-0.5-0.5-1.1-1.1-1.9-1.7
		c0.3-0.9,0.5-1.7,0.8-2.4C148.6,113.3,149.2,113.1,150.1,112.8z"/>
	<path class="st10" d="M143.6,155.8c0.7,0,1.3,0,2.1,0c0.5,0.7,1,1.5,1.6,2.5c-0.6,0.7-1.2,1.3-1.7,1.9c-0.7,0-1.4,0-2,0
		C141.9,159.5,141.9,158,143.6,155.8z"/>
	<path class="st12" d="M147.5,139.8c-0.2,0.6-0.4,1.2-0.6,1.9c-0.6,0.2-1.2,0.5-1.7,0.7c-1.1,0-2.2-1-2.4-2
		c-0.2-1.2,0.5-2.2,1.6-2.6C145.6,137.4,146.6,138,147.5,139.8z"/>
	<path class="st12" d="M146.7,102.6c-0.5-0.3-1.1-0.7-1.7-1.2c0-0.9,0-1.8,0-2.6c2.1-1.5,2.2-1.5,4.1,0
		C149.6,101.6,149.3,102,146.7,102.6z"/>
	<path class="st12" d="M116.8,138c-0.9,0-1.8,0-2.6,0c-1.6-2-1.6-2.2-0.1-4.3c0.8,0,1.8,0,2.6,0C118.3,135.7,118.3,135.8,116.8,138z
		"/>
	<path class="st15" d="M119.2,133.2c-0.1,0.1-0.1,0.1-0.1,0.1C119.1,133.3,119.2,133.3,119.2,133.2L119.2,133.2z"/>
	<path class="st9" d="M133.2,126.4c2-2.5,3.3-2.6,5.1-0.7c0,0.3,0,0.8,0,1.2c0,0.4,0,0.7-0.1,1.5c-0.9,0.3-1.9,0.7-3.2,1.2
		C134.3,128.3,133.7,127.3,133.2,126.4z"/>
	<path class="st15" d="M132.1,123.4c0.1,0.1,0.2,0.1,0.3,0.2c0,0-0.1,0.1-0.1,0.1C132.2,123.6,132.1,123.5,132.1,123.4
		C132.1,123.5,132.1,123.4,132.1,123.4z"/>
	<path class="st13" d="M121.1,127.7c0-0.6,0-1.2,0-1.9c0.5-0.3,1-0.7,1.6-1.1c0.6,0.3,1.2,0.7,1.8,1c0,0.8,0,1.4,0,2
		C122.8,129.1,122.7,129.1,121.1,127.7z"/>
	<path class="st16" d="M117.1,120.8c0,0.6,0.4,1.4,0.1,1.8c-0.7,0.9-1.4,0.3-2.1-0.6c0.4-0.5,0.8-0.9,1.2-1.3
		C116.5,120.7,116.8,120.7,117.1,120.8z"/>
	<path class="st15" d="M119.7,123.8c0.1,0.1,0.1,0.2,0.3,0.4C119.8,124.1,119.7,124,119.7,123.8L119.7,123.8z"/>
	<path class="st12" d="M126.1,139.9c1.3-0.3,2.5-0.1,2.8,1.3c0.1,0.6-0.4,1.6-0.9,2c-0.8,0.6-1.9,0.4-2.5-0.5
		C124.5,141.5,125.1,140.6,126.1,139.9z"/>
	<path class="st7" d="M127.7,99.7c0.3,0.6,0.6,1.1,0.9,1.6c-0.8,1.7-1.7,2.2-2.8,1.7c-0.9-0.4-1.4-1.1-1.1-2.1
		C125.1,99.5,126.1,99.3,127.7,99.7z"/>
	<path class="st7" d="M161.1,114.7c-2.4-1.4-2.6-2.3-0.9-4c0.6,0,1.2,0,2,0c0.3,0.7,0.7,1.3,1.1,2.1
		C162.5,113.5,161.8,114.1,161.1,114.7z"/>
	<path class="st12" d="M163.1,99.2c-0.3,1.4-1.2,2.3-2.5,2c-0.6-0.2-1.4-1.2-1.4-1.8c0-0.7,0.7-1.7,1.3-1.9
		C161.8,97,162.7,97.9,163.1,99.2z"/>
	<path class="st15" d="M157.9,96.3c0.1,0.1,0.1,0.2,0.2,0.4c-0.1-0.1-0.2-0.1-0.3-0.2C157.7,96.5,157.9,96.3,157.9,96.3z"/>
	<path class="st12" d="M156.4,142.6c0.3-0.6,0.6-1.4,0.9-2c1.5-0.5,2.6-0.3,3.1,1.1c0.3,1,0,1.9-1,2.4
		C158,144.6,157.1,144,156.4,142.6z"/>
	<path class="st13" d="M177.7,116.9c-1.9,1.6-2.5,1.5-4-0.9c0.6-0.7,1.3-1.4,2-2.2c0.8,0.5,1.4,0.8,1.9,1.1
		C177.6,115.7,177.7,116.3,177.7,116.9z"/>
	<path class="st7" d="M149.2,126c0.7-0.3,1.3-0.6,2-0.9c0.6,0.4,1.1,0.8,1.5,1.1c0.1,2.1-0.6,3.1-2,3
		C149.4,129.1,148.9,128.2,149.2,126z"/>
	<path class="st15" d="M133.2,150.7c0.1,0,0.3-0.1,0.6-0.2c-0.1,0.3-0.1,0.4-0.2,0.6C133.4,150.9,133.3,150.8,133.2,150.7z"/>
	<path class="st15" d="M169.5,133.8c-0.1,0.1-0.2,0.1-0.4,0.2c0-0.2,0-0.3,0-0.5C169.2,133.6,169.3,133.7,169.5,133.8z"/>
	<path class="st15" d="M167.5,154.9c0,0.2-0.1,0.4-0.1,0.6c-0.1,0-0.2-0.1-0.3-0.1C167.3,155.2,167.4,155.1,167.5,154.9
		C167.5,154.9,167.5,154.9,167.5,154.9z"/>
	<path class="st15" d="M135.6,104.4c0.1,0.1,0.2,0.1,0.3,0.2c0,0,0,0-0.1,0.1C135.8,104.5,135.7,104.5,135.6,104.4
		C135.6,104.4,135.6,104.4,135.6,104.4z"/>
	<path class="st15" d="M153.3,150c-0.2,0-0.4-0.1-0.6-0.1c0-0.1,0.1-0.2,0.1-0.3C153,149.8,153.2,149.9,153.3,150
		C153.3,150,153.3,150,153.3,150z"/>
	<path class="st15" d="M149.3,150.9c0-0.2,0.1-0.4,0.1-0.6c0.1,0,0.1,0,0.2,0.1C149.6,150.6,149.5,150.8,149.3,150.9L149.3,150.9z"
		/>
	<path class="st12" d="M116.7,113.1c0.6,1.1,0.4,1.9-0.5,2.4c-1.2,0-1.5-0.7-1.4-1.6C115,112.9,115.7,112.6,116.7,113.1z"/>
	<path class="st16" d="M122.5,150c-0.7,1.6-1.4,1.7-2.6,0.4c0.4-0.4,0.7-1.1,1-1.2C121.4,149.2,122,149.7,122.5,150z"/>
	<path class="st16" d="M137.2,114.9c1.3-1.2,1.9-0.7,2.6,0.5c-0.5,0.4-1,0.7-1.7,1.2C137.8,115.9,137.5,115.5,137.2,114.9z"/>
	<path class="st16" d="M143.4,92.8c-1-1.2-0.9-1.9,0.4-2.7c0.4,0.6,0.9,1.1,1.4,1.7C144.5,92.3,144,92.5,143.4,92.8z"/>
	<path class="st16" d="M168.8,129.1c0,0.8,0,1.2,0,1.7c-0.3,0.1-0.7,0.3-0.9,0.2c-0.5-0.3-0.9-0.7-1.4-1.1c0.1-0.2,0.2-0.4,0.2-0.6
		C167.3,129.3,167.9,129.2,168.8,129.1z"/>
</g>
<g class="st5">
	<path class="st17" d="M70.2,157c-0.1,0.2-0.4,0.3-0.3,0.5c0.4,2.8-0.9,4.8-2.7,6.7c-0.3,0-0.6,0-0.9,0c-0.7-0.9-1.6-1.8-2.2-2.8
		c-0.9-1.5-1.6-3.1-2.4-4.6c-0.2-0.4-0.5-0.8-0.8-1.2c0.1-0.5,0.2-1.1,0.5-1.6c0.2-0.4,0.6-0.6,0.9-0.9c1.1,1.4,2.2,2.7,3.4,4.1
		c0.1,0.2,0.3,0.5,0.4,0.7c0.1-0.1,0.2-0.1,0.3-0.2c-0.1-0.3-0.2-0.6-0.4-0.9c-0.7-1.8-1.4-3.6-3.3-4.5c0-0.2,0-0.4,0-0.6
		c0.7,0,1.3,0,2,0c0.8,0.3,1.6,0.6,2.4,1C68.1,154.2,69.1,155.6,70.2,157z"/>
	<path class="st17" d="M47.6,108c0.8-0.3,1.6-0.6,2.5-0.8c3.2-0.9,5.2-0.6,9.1,1.5c0.4-0.6,0.9-1.4,1.4-2.1c0.2,0.1,0.3,0.2,0.5,0.2
		c0.1,1.1,0.1,2.3,0.3,3.4c0.1,1.1,0.3,2.3,0.5,3.4c0.1,0,0.3,0,0.4,0c0-2,0-4.1,0-6.2c3.9,2.7,4.6,7.9,1.8,12.7
		c-3.7-0.4-5.5-2.9-6.2-8.8c-1.8,1.1-3.5,2.1-5.3,3.1c-0.4,0.2-0.9,0.4-1.3,0.7c-0.2,0.2-0.3,0.4-0.5,0.6c-0.2-0.1-0.5-0.4-0.7-0.3
		c-1.5,0.2-3,0.5-4.4,0.9c-0.3,0.1-0.5,0.5-0.7,0.8c-0.6-0.3-1.3-0.7-1.9-1c0.1-0.9,0.1-1.8,0.2-2.6c1.3-1.6,2.7-3.2,4-4.8
		C47.3,108.2,47.5,108.1,47.6,108L47.6,108z M49,111.6c3-0.5,5.9-1,8.7-1.5c0.4-0.1,0.7-0.6,1.1-0.9c-0.1-0.1-0.2-0.3-0.3-0.4
		C55.2,109.1,52,109.8,49,111.6z"/>
	<path class="st18" d="M88.2,123.8c0.5,0,1.1-0.1,1.6-0.1c0.4,0,0.9,0.1,1.3,0.1c2.5,0.1,4.5,1.6,6.7,2.9c-1.2,3.5-3.9,4.6-7.4,4.8
		c1.3,1.2,2.4,2.1,3.3,3.2c1,1.1,1.8,2.3,2.7,3.5c-4.9,3.1-14-0.6-16.6-6.3c0.9-0.2,1.9-0.3,2.8-0.5c1.6,0.9,3.1,1.9,4.7,2.8
		c0.6,0.3,1.1,0.5,1.7,0.8c0-0.1,0.1-0.2,0.1-0.4c-0.5-0.2-1-0.4-1.6-0.7c-1.4-1.1-2.9-2.2-4.3-3.4c-0.5-0.9-1-1.8-1.5-2.6
		c1.2,0.3,2.5,0.6,3.9,0.9c-0.3-1-0.5-1.9-0.8-2.8c0.4,0.4,0.9,0.9,1.3,1.3c0.3,0.2,0.6,0.3,0.9,0.5c0.1,0.1,0.2,0.1,0.4,0.4
		c-0.2-0.2-0.3-0.3-0.3-0.4c-0.3-0.1-0.6-0.3-0.9-0.4c0-0.5,0-0.9,0-1.4c1.6,0.5,3.2,1,4.8,1.5c1.1,0.1,2.1,0.3,3.2,0.4
		c0-0.1,0-0.3,0.1-0.4c-0.9-0.1-1.8-0.3-2.7-0.4c-1.9-0.9-3.8-1.9-5.7-2.8C86.5,124.1,87.4,124,88.2,123.8z M88,128.9
		c-0.2,0.1-0.4,0.2-0.6,0.4c0.4,0.6,0.8,1.1,1.3,1.7c0.2-0.1,0.3-0.2,0.5-0.4C88.8,130,88.4,129.4,88,128.9z M94.6,138
		c0.1-0.1,0.1-0.2,0.2-0.3c-0.3-0.2-0.5-0.3-0.8-0.5c-0.1,0.1-0.1,0.2-0.2,0.3C94.1,137.7,94.4,137.9,94.6,138z M93,137
		c0,0,0-0.1,0-0.1c-0.1,0-0.3,0-0.4,0c0,0,0,0.1,0,0.1C92.7,137,92.9,137,93,137z"/>
	<path class="st19" d="M57.5,129.7c0,0.3,0,0.6,0,0.9c0,1.8,0,3.6,0,5.4c0.1,0,0.2,0,0.3,0c0.2-1.8,0.3-3.6,0.5-5.4
		c0.2-0.9,0.4-1.9,0.6-3.1c1.8,2.4,2.8,4.6,2.3,7.4c-0.1,0.6-0.2,1.3-0.3,2c-0.3,0.5-0.6,1.1-0.9,1.6c-0.3,0.2-0.5,0.5-0.9,0.7
		c0.5,0.2,0.8,0.4,1.3,0.6c-1.5,1.2-3,2.2-4.4,3.3c0.1,0.2,0.2,0.3,0.3,0.5c1.3-0.7,2.7-1.5,4.1-2.2c-0.4,5-7.7,10.1-12.3,9.1
		c-1-4,1.7-8,7.5-10.8c-0.4-0.7-0.9-1.3-1.3-2c-0.2-0.7-0.4-1.4-0.6-2.1c-0.2-3,0.6-5.6,2.8-7.7c0.1-0.1,0.2-0.2,0.3-0.3l0.1-0.1
		c0.3,0.2,0.5,0.3,0.8,0.5c0,0.3-0.1,0.6-0.1,0.9C57.5,129.1,57.5,129.4,57.5,129.7z M52.8,146c-0.2,0.1-0.4,0.2-0.6,0.3
		c0.1,0.1,0.1,0.2,0.2,0.2c0.2-0.2,0.3-0.3,0.5-0.5c0.2-0.1,0.3-0.3,0.5-0.4c0.4-0.3,0.8-0.6,1.2-0.9c-0.1-0.1-0.2-0.3-0.4-0.4
		c-0.4,0.4-0.7,0.7-1.1,1.1C53.1,145.6,52.9,145.8,52.8,146z"/>
	<path class="st20" d="M83.2,117.5c-7.5,2.9-17-3.6-16.7-10.8c0.5,0.2,1,0.4,1.5,0.6c0.2-0.4,0.3-0.8,0.5-1.2
		c5.5,1.9,10.5,4.5,14.2,9c0.5,0.6,0.6,1.4,0.9,2.1C83.3,117.3,83.2,117.3,83.2,117.5z M72.1,110.9c-0.2-0.2-0.5-0.4-0.7-0.6
		c-0.5-0.5-1-1.1-1.6-1.6c-0.5-0.5-1.1-1-1.6-1.6c-0.2,0.2-0.3,0.3-0.5,0.5c0.5,0.5,1,1.1,1.5,1.6c0.6,0.5,1.1,1,1.7,1.5
		c0.2,0.2,0.5,0.4,0.7,0.6c0.4,0.2,0.7,0.5,1.1,0.7c0.7,0.4,1.4,0.9,2.2,1.3c0.1-0.2,0.2-0.4,0.3-0.7c-0.7-0.3-1.4-0.7-2.1-1
		C72.8,111.4,72.5,111.2,72.1,110.9z"/>
	<path class="st19" d="M81.7,128c0.5,0.9,1,1.8,1.5,2.6c-0.2,0.3-0.4,0.5-0.6,0.8c-0.9,0.2-1.9,0.3-2.8,0.5
		c-0.8-0.1-1.7-0.2-2.5-0.3c-0.3-0.1-0.6-0.2-0.9-0.2c-2.7-1.2-5-2.8-6.4-5.4c-1.3-2.3-1.6-4.6-1-7.3c1,1.4,1.9,2.7,2.8,4
		c0.4,0.5,0.8,1,1.2,1.5c0.4,0.3,0.7,0.7,1.1,1c0.1-0.1,0.2-0.2,0.2-0.3c-0.3-0.4-0.6-0.7-1-1.1c-0.4-0.5-0.7-1-1.1-1.5
		c-0.5-1-1-2-1.5-3.1c0.1-0.1,0.2-0.2,0.3-0.3c0.4,0.2,0.9,0.3,1.3,0.5c3.4,2,6.2,4.6,8.5,7.8C81.1,127.6,81.5,127.8,81.7,128z"/>
	<path class="st18" d="M49.8,124.9c0.2-0.2,0.4-0.3,0.9-0.7c-0.6,2.7-1.1,5.1-1.6,7.4c-0.1,0.4-0.1,0.8-0.2,1.3c0.1,0,0.2,0,0.3,0
		c0.1-0.3,0.1-0.7,0.2-1c0.7-2.2,1.5-4.4,2.3-6.9c1.5,3.3,1.4,6.5,0.4,9.7c-0.2,0.6-0.4,1.3-0.6,1.9c-1.2,2.4-2.6,4.7-5,6.3
		c-1.5-1.8-2-3.8-2.1-5.9c0.4-2.4,0.9-4.8,1.3-7.2C47.2,128.3,48.5,126.6,49.8,124.9z"/>
	<path class="st21" d="M47.1,108.4c-1.3,1.6-2.7,3.2-4,4.8c-2,0.6-3.9,1.3-5.9,1.9c-0.7-0.1-1.4-0.3-2.1-0.4
		c-0.4-0.2-0.8-0.4-1.2-0.5c0.2-0.7,0.4-1.1,0.5-1.6c0.4-0.6,0.9-1.3,1.3-1.9c2.7-3.9,6-7.1,10.5-8.9c-1.3,2.6-2.7,5.1-4.2,7.9
		c2.3-2,4-4.1,5-6.8c0.2,0.8,0.5,1.7,0.5,2.5c0.1,0.9-0.1,1.8-0.2,2.7l0,0c-0.1,0-0.2,0-0.3,0C47.2,108.1,47.2,108.2,47.1,108.4z"/>
	<path class="st21" d="M78.6,136.8c4.9,0.4,10.6,4.4,13,7.8c-1.9,2-4.2,2.6-6.9,2.2c-0.7-0.1-1.4-0.2-2.1-0.3l0,0
		c-0.3-0.3-0.6-0.6-0.9-0.8c-0.3-0.2-0.6-0.4-0.9-0.5c-2.7-1.8-3.9-4.4-4-7.8c0.4,0.1,0.6,0.2,0.9,0.3c1.3,1.8,2.8,3.4,5,4.1
		C81.4,140,80,138.4,78.6,136.8z"/>
	<path class="st18" d="M63.7,148.8c0,0.2,0,0.4,0,0.6c-0.1,0.2-0.3,0.5-0.4,0.7c-0.3,0.3-0.7,0.5-0.9,0.9c-0.2,0.5-0.3,1.1-0.5,1.6
		c-2.6,3.6-6.5,5.3-10.2,4.1c1.4-6.2,4.9-10.6,10.5-13.4c-0.1,0.7-0.3,1.5-0.4,2.2c-1,1.6-2,3.2-2.9,4.8c-0.3,0.3-0.6,0.6-0.8,1
		c0.2,0.2,0.4,0.4,0.7,0.6c0.2-0.4,0.3-0.8,0.5-1.3c1-1.5,2-3,3-4.5c0.4-0.4,0.8-0.7,1.3-1.1C64.3,146.6,64.3,146.6,63.7,148.8z"/>
	<path class="st21" d="M70.2,157c-1-1.4-2-2.8-3.1-4.3c0-0.9-0.1-1.8-0.1-2.7c-0.1-2.9,0.5-5.5,2.7-7.5c0.2,1.8,0.4,3.5,0.6,5.3
		c0.2,1,0.3,1.9,0.5,2.9c0.1,0,0.1-0.1,0.2-0.1c0-2.2,0-4.5,0-6.7c0.1-0.1,0.1-0.3,0.3-0.8c0.8,1.3,1.4,2.3,2.1,3.4
		c0.1,0.3,0.3,0.6,0.4,0.9c0.3,0.9,0.6,1.8,0.9,2.6c0.1,1.6,0.2,3.2,0.1,4.8c-0.1,1.4-0.5,2.7-0.7,4.1C72.3,159,71.2,158,70.2,157z"
		/>
	<path class="st20" d="M24.6,121.6c0-1,0-2.1,0-3.1c0.3-0.1,0.5-0.2,0.8-0.3c0.2,0.1,0.3,0.1,0.5,0.2c0.3,0,0.6,0,0.9,0.1
		c0.9,0.1,1.8,0.2,2.6,0.2l0,0c0.3,0.1,0.6,0.2,0.9,0.3c1.7,0.6,3.4,1.2,5,1.9c0.9,0.4,1.8,0.9,2.7,1.3c0.1,0.2,0.2,0.5,0.3,0.7
		c-2.2,0.2-4.4,0.4-6.6,0.6c1.9,1.2,4,0.6,6.1,0.9c-1.4,2.4-4.3,3.2-7.4,2.4C27.5,126.1,25.8,124.2,24.6,121.6z"/>
	<path class="st20" d="M61.8,122.9c0.3-0.2,0.6-0.5,0.9-0.4c4.1,0.7,7.7,4.6,8,8.8c0,0.7,0,1.3,0,2c-0.2,1.2-1.1,0.6-1.8,0.8
		c-4.7-0.9-7.7-3.6-8.7-8.3c-0.1-0.4-0.1-0.9-0.1-1.3c0-0.4,0.1-0.8,0.1-1.5c0.5,0.3,0.8,0.4,1.1,0.6c0.8,1,1.7,1.9,2.5,2.9
		c0.2,0.2,0.4,0.5,0.6,0.7c0.1,0.1,0.3,0.3,0.4,0.4c0.3,0.3,0.6,0.6,0.8,0.9c0.4,0.2,0.7,0.5,1.1,0.7c0.1,0.1,0.3,0.3,0.4,0.4
		c0,0.2,0,0.4,0.1,0.6c0.1,0,0.2-0.1,0.3-0.1c-0.1-0.2-0.3-0.3-0.4-0.5c-0.1-0.2-0.3-0.3-0.4-0.5c-0.3-0.3-0.5-0.6-0.8-1
		c-0.2-0.4-0.5-0.7-0.7-1.1c-0.1-0.1-0.2-0.3-0.4-0.4c-0.2-0.3-0.4-0.5-0.6-0.8C63.4,125,62.6,124,61.8,122.9z"/>
	<path class="st17" d="M44.1,94.7c1.8-0.3,3.5-0.6,5.3-1c0.6-0.2,1.2-0.3,1.8-0.5c0-0.2-0.1-0.3-0.1-0.5c-0.6,0.1-1.1,0.3-1.7,0.4
		c-1.6,0.1-3.1,0.2-4.7,0.4c-0.1-0.2-0.2-0.3-0.2-0.5c1.2-1,2.4-1.9,3.6-2.9c1.1-0.3,2.1-0.6,3.2-1c1.8,0.2,3.6,0.3,5.4,0.6
		c0.3,0,0.6,0.5,0.8,0.8c0,0.5-0.1,0.9-0.1,1.4c-1.4,2.7-3.4,4.8-6.6,5.1c-1.6,0.1-3.3-0.4-4.9-0.6C45.2,95.9,44.7,95.3,44.1,94.7z
		 M52.7,92.8c0-0.1,0-0.2,0-0.2c-0.4,0-0.7,0-1.1,0c0,0.1,0,0.2,0,0.2C52,92.8,52.4,92.8,52.7,92.8z"/>
	<path class="st18" d="M59.7,98.3c2,0.7,3.5,2.6,5.8,2c-1.5-0.8-3.1-1.7-5-2.7c4.9-1.7,8.6-0.1,12.1,2.4c-0.7,3.2-3.2,4.8-6.9,4.5
		C62.4,104.2,59.9,101.8,59.7,98.3z"/>
	<path class="st20" d="M87.5,108.8c-1.8,0.2-3.6,0.4-5.4,0.6c1.3-2.2,3-3.6,5.3-4.2c0.7-0.2,1.3-0.5,2-0.8c0.6-0.1,1.2-0.3,1.8-0.4
		c0.6,0.2,1.3,0.4,2,0.7c0.8,2.4,0,4.5-1.6,6.3c-1.3,0.6-2.7,1.2-4,1.8c-0.1,0.1-0.3,0.3-0.4,0.4c0,0,0,0,0,0
		c-1-0.2-2.1-0.3-3.1-0.7c-0.9-0.4-1.8-1.1-2.6-1.6c2.2-0.7,4.2-1.3,6.2-2c0.4-0.1,0.8-0.2,1.2-0.2c0-0.1-0.1-0.2-0.1-0.4
		C88.2,108.5,87.8,108.6,87.5,108.8z"/>
	<path class="st20" d="M74.7,150.1c-0.3-0.9-0.6-1.8-0.9-2.6c1.7,0.5,3.4,1,5.1,1.5c0.3,0.1,0.6,0.1,0.9,0.2c0-0.1,0.1-0.2,0.1-0.3
		c-0.2-0.1-0.5-0.2-0.7-0.2c-1.4-1.3-3-2-4.9-2.1c-0.3-1.1,0.8-1.2,1.3-1.3c1.8-0.1,3.5-0.1,5.3-0.1c0.3,0.2,0.6,0.4,0.9,0.5
		c0.3,0.3,0.6,0.6,0.9,0.8l0,0c0.3,0.6,0.7,1.3,1,1.9c1.1,2,1.3,4,0.1,6.2C80.2,153.9,77.1,152.7,74.7,150.1z"/>
	<path class="st17" d="M49.8,124.9c-1.3,1.7-2.6,3.4-4,5.1c-0.6,0.3-1.2,0.6-1.5,0.7c-1.6-0.1-3-0.2-4.3-0.3
		c-0.8-0.6-1.5-1.2-2.2-1.8c0.7-1.2,1.3-2.3,1.9-3.3c0.4-0.6,0.9-1.3,1.3-1.9c1.8-0.5,3.9-0.5,5.2-2.2c0.4-0.1,0.9-0.2,1.6-0.3
		c-0.4,1.1-0.8,2-1.2,2.9c0.1,0.1,0.3,0.2,0.4,0.3c0.6-0.7,1.2-1.4,1.9-2.2C49.2,123,49.5,123.9,49.8,124.9z M46.2,125.2
		c0.2-0.3,0.4-0.6,0.6-0.8c-0.1-0.1-0.2-0.2-0.3-0.2c-0.2,0.2-0.5,0.4-0.7,0.6c-0.4,0.4-0.8,0.7-1.1,1.1c-0.5,0.4-1,0.8-1.5,1.1
		c0.1,0.1,0.2,0.2,0.3,0.4c0.5-0.4,1-0.8,1.5-1.1C45.4,125.9,45.8,125.5,46.2,125.2z"/>
	<path class="st17" d="M91.1,104c-0.6,0.1-1.2,0.3-1.8,0.4c-1.2-0.3-2.5-0.7-4.1-1.1c1.3-0.8,2.3-1.5,3.4-2.2
		c0.4-0.1,0.7-0.3,1.1-0.4c0-0.1-0.1-0.2-0.1-0.3c-0.5,0.1-0.9,0.1-1.4,0.2c-1,0.4-2.1,0.9-3.2,1.3c-0.2-0.2-0.4-0.5-0.6-0.7
		c0.4-0.8,0.9-1.6,1.3-2.4c0.7-0.4,1.4-0.8,2-1.2c3.6-2.2,7.7-1,9.8,2.7C95.8,102.1,93.9,103.8,91.1,104z M91.6,99.6
		c0,0.2,0,0.3,0,0.5c1.1-0.1,2.3-0.2,3.4-0.3c0-0.1,0-0.1,0-0.2C93.9,99.6,92.7,99.6,91.6,99.6z"/>
	<path class="st19" d="M76.4,91.5c0.2,0.6,0.3,1.3,0.5,2.1c-3.4,1.1-6.6,1.5-9.9,0.3c-1.2-0.4-2.3-1-3.4-1.5c0-0.3,0.1-0.6,0.1-0.9
		c1.4-0.2,2.9-0.5,4.3-0.7c1.3,0.1,2.5,0.2,3.8,0.2c0-0.1,0-0.3,0-0.4c-1-0.1-2-0.3-2.9-0.4c-1.7,0.1-3.5,0.2-5.2,0.2
		c-0.1-0.1-0.2-0.2-0.3-0.3c0.8-0.7,1.6-1.5,2.4-2.2c0.6-0.3,1.2-0.5,1.7-0.8c2-0.1,4-0.3,5.8,0.9c-0.3,0.7-0.6,1.4-1,2.4
		c0.7,0.7,1.3,1.4,1.8,1.9C75.1,92,75.8,91.8,76.4,91.5z"/>
	<path class="st19" d="M44.9,97c0.2,0.5,0.4,0.9,0.6,1.4c-1.8,2.5-4.1,3.3-6.7,2.2c-2.2-0.9-4.4-3.8-3.3-6.6
		c0.4,0.2,0.9,0.5,1.3,0.7c0.2,0,0.4,0.1,0.9,0.1c-0.3-0.4-0.4-0.6-0.5-0.7c-0.1-0.2-0.1-0.4-0.2-0.8c2.3-0.3,4.4-0.2,6.2,1.5
		C43.8,95.4,44.3,96.2,44.9,97z M38.1,95.9c0.3,0,0.6,0.1,1,0.1c0-0.1,0-0.2,0.1-0.3c-0.2-0.1-0.5-0.2-0.7-0.4
		c-0.3-0.2-0.6-0.3-0.9-0.5c-0.1,0.1-0.1,0.2-0.2,0.4C37.6,95.5,37.8,95.7,38.1,95.9z"/>
	<path class="st20" d="M69.7,142.5c-2.2,2.1-2.8,4.7-2.7,7.5c-0.8,0.6-1.6,1.2-2.4,1.7c-0.7,0-1.3,0-2,0c0.6-2.2,0.6-2.2-0.1-3.8
		c-0.4,0.4-0.8,0.7-1.3,1.1c-0.1-0.2-0.3-0.4-0.4-0.6c0.1-0.7,0.3-1.5,0.4-2.2c0.7-3.9,2.9-6.6,6.6-7.5c-0.3,1-0.6,1.8-0.8,2.7
		c-0.5,1-0.9,2.1-1.4,3.1c-0.2,0.4-0.3,0.8-0.5,1.3c-0.1,0.3-0.1,0.6-0.2,0.9c0.1,0,0.2,0,0.3,0.1c0.1-0.2,0.1-0.5,0.2-0.7
		c0.2-0.4,0.4-0.8,0.6-1.2c0.5-1,1-1.9,1.5-2.9c0.5-0.7,1-1.4,1.7-2.5C69.4,140.8,69.6,141.7,69.7,142.5z"/>
	<path class="st18" d="M29.4,105.8c-0.4-0.2-0.7-0.3-0.8-0.4c0.1-1.2,0.2-2.2,0.3-3.2c1.1-0.8,2.2-1.5,3.2-2.3
		c0.5,0,0.9-0.1,1.4-0.1c2.7,0.1,4.9,1.1,6,4c-1.7-0.1-3.4-0.2-5-0.3c0,0.1,0,0.3-0.1,0.4c1.4,0.4,2.8,0.7,4.2,1.1
		c0,0.2,0.1,0.3,0.1,0.5c-1.3,0.6-2.5,1.3-3.8,1.9c-0.6,0-1.1,0.1-1.7,0.1C32,106.8,30.7,106.3,29.4,105.8z"/>
	<path class="st21" d="M87.5,112.9c1.3-0.6,2.7-1.2,4-1.8c1.6,0.3,3.1,0.6,4.6,0.9c0.7,4.3-1.6,6.7-6,6.6c-1.5,0-2.8-0.4-3.7-1.7
		c-0.2-0.2-0.3-0.4-0.6-0.8c1.6-0.2,3.1-0.5,4.6-0.7c0-0.1,0-0.3,0-0.4c-1.3,0-2.6,0-4.1,0c0.3-0.8,0.6-1.2,0.8-1.7l0,0
		C87.2,113.2,87.3,113,87.5,112.9z"/>
	<path class="st21" d="M50.8,115.5c0.2-0.2,0.3-0.4,0.5-0.6c0.8,1.3,1.5,2.6,2.3,3.9c0.1,0.3,0.2,0.7,0.3,1c0.2-0.2,0.4-0.4,0.6-0.6
		c-0.2-0.3-0.4-0.5-0.6-0.8c-0.3-0.7-0.7-1.4-0.8-2.2c-0.1-0.4,0.2-1,0.3-1.4c1.9,0.7,4,1.4,4.3,3.9c0.2,1.3,0,2.6,0,3.9
		c-2.5,1.3-4.8,1-6.5-0.7C49.6,120.2,49.4,118,50.8,115.5z"/>
	<path class="st21" d="M40,130.5c1.4,0.1,2.7,0.2,4.3,0.3c0.3-0.2,0.9-0.4,1.5-0.7c-0.4,2.4-0.9,4.8-1.3,7.2c-1.7,0.7-3.2,2-5.3,1.7
		C37.4,135.7,37.6,133.4,40,130.5z"/>
	<path class="st21" d="M68.9,134.1c0.6-0.2,1.6,0.4,1.8-0.8c0.3,0.5,0.6,1,0.9,1.5c0.1,0,0.2-0.1,0.3-0.1c0-0.7,0-1.5,0-2.4
		c1,0.3,1.8,0.7,2.7,1c0.2,0.1,0.5,0.3,0.7,0.4c1.5,2.2,0.9,4.4,0.3,6.6c-3.6,1-5.7,0-6.9-3.2c-0.1-0.4-0.2-0.9-0.3-1.3
		C68.6,135.3,68.7,134.7,68.9,134.1z"/>
	<path class="st17" d="M56.1,103c0.7,0.3,1.4,0.5,2,0.8c-2.5,3.2-4.7,3.2-8.6-0.3c-0.1-2.5,1.4-4.4,3.9-4.8c2.1-0.4,5.1,0.6,5.7,4
		c-0.6,0-1.1-0.1-1.7-0.1c-1.5-0.1-3-0.2-4.5-0.3c-0.6,0.1-1.2,0.3-1.8,0.4c0,0.1,0,0.2,0.1,0.3c0.9-0.1,1.7-0.1,2.6-0.2
		C54.5,102.9,55.3,103,56.1,103z"/>
	<path class="st17" d="M80.7,102.1c0.7,0.9,1.5,1.9,2.2,2.9c-1,1.6-1.9,2.9-2.9,4.4c-1.5-0.4-2.8-0.7-4.4-1.1
		c0.6-0.7,0.9-1.2,1.3-1.6c0.2-0.1,0.5-0.2,0.7-0.3c0-0.1,0-0.2-0.1-0.3c-0.3,0-0.6,0.1-0.9,0.1c-0.6,0.2-1.1,0.5-1.7,0.7
		c-0.6-3.2,1.1-5.2,4.6-5.3C79.9,101.9,80.3,102,80.7,102.1z"/>
	<path class="st21" d="M46.3,121.2c-1.3,1.7-3.4,1.6-5.2,2.2c-0.5-0.6-1.1-1.1-1.6-1.7c-0.8-0.9-1.4-1.8-0.9-3.1
		c0.7-0.7,1.4-1.5,2.2-2.2c0.7-0.6,1.4-1.1,2.3-0.6c0.6,0.3,1.3,0.7,1.9,1c0.3,0.1,0.6,0.2,1.3,0.5c-1.3,0.8-2.3,1.5-3.3,2.1
		c0,0.1,0.1,0.2,0.1,0.3c1.2-0.3,2.4-0.7,3.8-1.1C46.6,119.5,46.4,120.4,46.3,121.2z"/>
	<path class="st21" d="M80.7,102.1c-0.4-0.1-0.8-0.3-1.2-0.4c-0.6-0.7-1.1-1.5-1.7-2.3c0.7-1.5,1.4-3,2.2-4.5
		c1.5,0.1,2.9,0.2,4.3,0.4c-0.2,0.7-0.4,1.1-0.6,1.9c0.7-0.3,1.2-0.5,2-0.8c0,0.9,0,1.6,0,2.3c-0.4,0.8-0.9,1.6-1.3,2.4
		C83.4,102.3,82.1,102.3,80.7,102.1z M82.5,97.9c0.1,0.1,0.2,0.3,0.3,0.4c0.4-0.3,0.8-0.6,1.2-0.9c0-0.1-0.1-0.1-0.3-0.3
		C83.3,97.3,82.9,97.6,82.5,97.9z"/>
	<path class="st17" d="M86.3,116.9c0.9,1.3,2.2,1.7,3.7,1.7c-0.2,0.1-0.5,0.3-0.8,0.5c0.1,0.4,0.2,0.9,0.3,1.1
		c-0.5,1.4-0.9,2.5-1.3,3.7c-0.8,0.1-1.7,0.3-2.5,0.4c-0.4-0.1-0.8-0.1-1.2-0.2c-0.5-0.2-1-0.4-1.7-0.6c0.4-0.6,0.7-1,1-1.5
		c0.3-0.2,0.6-0.3,0.9-0.5c0-0.1-0.1-0.2-0.1-0.3c-0.4,0.1-0.8,0.2-1.3,0.3c-0.5,0.2-0.9,0.4-1.4,0.7c-1-2,0.5-3.3,1.2-4.8
		c0.1-0.1,0.2-0.2,0.3-0.2C84.4,117.2,85.4,117,86.3,116.9z"/>
	<path class="st17" d="M84.4,125.3c0.6,0.3,1.2,0.5,1.7,0.8c0,0.5,0,0.9,0,1.4l0,0c-0.4-0.4-0.9-0.9-1.3-1.3l0,0
		c0-0.1,0-0.2-0.1-0.3C84.6,125.6,84.5,125.5,84.4,125.3z"/>
	<path class="st22" d="M36.5,141.4c-0.4-0.1-0.9-0.2-1.3-0.2C35.7,141.3,36.1,141.4,36.5,141.4z"/>
	<path class="st17" d="M91.1,123.9c-0.4,0-0.9-0.1-1.3-0.1C90.2,123.8,90.7,123.8,91.1,123.9z"/>
	<path class="st23" d="M37.9,140.3c0-0.2,0-0.3,0-0.5c0.1,0.2,0.2,0.4,0.2,0.6C38.1,140.4,38,140.4,37.9,140.3z"/>
	<path class="st14" d="M57.5,129.7c0-0.3,0-0.6,0-0.9C57.5,129.1,57.5,129.4,57.5,129.7z"/>
	<path class="st18" d="M84.8,125.8c0,0.1,0.1,0.2,0.1,0.3l-0.1-0.1L84.8,125.8z"/>
	<path class="st17" d="M88,128.9c0.4,0.6,0.8,1.2,1.2,1.7c-0.2,0.1-0.3,0.2-0.5,0.4c-0.4-0.6-0.8-1.1-1.3-1.7
		C87.7,129.1,87.9,129,88,128.9z"/>
	<path class="st17" d="M87,127.9c-0.3-0.2-0.6-0.3-0.9-0.5l0,0C86.5,127.6,86.8,127.7,87,127.9C87.1,127.9,87,127.9,87,127.9z"/>
	<path class="st17" d="M87.1,127.9c0.1,0.1,0.1,0.2,0.3,0.4C87.2,128.1,87.1,128,87.1,127.9L87.1,127.9z"/>
	<path class="st19" d="M26.8,111.4c0.7-0.3,1.3-0.5,2.3-0.9c1.2,0.8,2.5,1.6,3.7,2.5c0,0.2-0.1,0.4-0.1,0.6
		c-0.9,0.2-1.9,0.5-2.8,0.7c-1.2,0-2.4,0-3.7,0c0,0.1,0,0.1-0.1,0.2c0.7,0.2,1.3,0.3,2,0.5c1.6,0,3.2,0,4.8,0
		c-0.4,1.8-1.7,2.9-3.6,3.3c-0.9-0.1-1.8-0.2-2.7-0.4c-1.6-0.9-2.4-2.3-2.6-4.1c0.3-0.4,0.7-0.8,1.1-1.2
		C25.8,112.1,26.3,111.8,26.8,111.4z"/>
	<path class="st15" d="M82.6,146.5c-0.3-0.3-0.6-0.6-0.9-0.8C82.1,145.9,82.4,146.2,82.6,146.5z"/>
	<path class="st14" d="M29.4,118.6c0.3,0.1,0.6,0.2,0.9,0.3C30,118.9,29.7,118.7,29.4,118.6z"/>
	<path class="st14" d="M25.4,118.2c0.2,0.1,0.3,0.1,0.5,0.2C25.7,118.3,25.6,118.2,25.4,118.2z"/>
	<path class="st14" d="M67.1,129.6c-0.1-0.1-0.3-0.3-0.4-0.4c0,0,0,0,0,0C66.8,129.4,66.9,129.5,67.1,129.6
		C67.1,129.7,67.1,129.6,67.1,129.6z"/>
	<path class="st15" d="M87.5,112.9c-0.1,0.1-0.3,0.3-0.4,0.4C87.2,113.2,87.3,113,87.5,112.9z"/>
	<path class="st14" d="M27.9,133.8c0.2,0,0.3-0.1,0.5-0.1c0,0.1,0,0.1,0,0.2c-0.2,0-0.3,0-0.5,0.1C27.9,133.9,27.9,133.9,27.9,133.8
		z"/>
</g>
</svg>
